<svg width="574" height="247" viewBox="0 0 574 247" fill="none" xmlns="http://www.w3.org/2000/svg">
<path fill-rule="evenodd" clip-rule="evenodd" d="M351 38.046C351 75.658 351.376 81.098 354.665 91.095C363.708 118.578 390.423 138.095 419 138.095C444.164 138.095 468.397 122.696 479.518 99.639C489.449 79.048 489.384 59.004 479.32 38.144C475.487 30.201 473.376 27.309 466.092 20.025C459.045 12.978 455.81 10.576 448.783 7.175C444.03 4.875 438.524 2.73 436.547 2.409C434.569 2.088 432.711 1.436 432.417 0.96C432.123 0.484 427.184 0.0949998 421.441 0.0949998H411V6.941V13.787L419.75 13.875C443.264 14.112 462.807 28.585 470.481 51.443C473.717 61.084 474 75.704 471.128 84.93C466.595 99.497 456.771 111.319 443.428 118.268C428.483 126.051 410.483 126.224 395.021 118.733C386.602 114.655 375.599 103.848 371.088 95.227C364.839 83.282 364.729 82.382 364.263 39.345L363.839 0.0949998H357.419H351V38.046ZM367 38.913C367 71.71 367.25 78.575 368.612 83.163C371.345 92.367 375.964 100.244 382.407 106.688C402.89 127.17 435.125 127.185 455.546 106.722C476.373 85.851 476.221 51.742 455.208 31.192C444.22 20.445 433.725 16.095 418.79 16.095H411V21.976V27.856L420.25 28.273C431.692 28.789 438.511 31.628 446.536 39.217C467.355 58.907 462.068 93.056 436.223 105.829C428.991 109.404 428.119 109.593 419.052 109.556C411.588 109.525 408.277 109.03 403.905 107.292C395.823 104.079 386.873 95.613 382.789 87.319L379.5 80.642L379.217 40.368L378.935 0.0949998H372.967H367V38.913ZM381 37.046C381 60.01 381.414 75.926 382.093 79.095C384.388 89.795 395.078 101.531 406.261 105.627C413.249 108.186 425.678 108.117 432.176 105.481C447.403 99.305 457.016 85.23 456.989 69.151C456.971 58.404 453.763 50.048 446.723 42.41C439.598 34.68 429.29 30.133 418.832 30.107C411.379 30.088 411 30.452 411 37.63V43.95L416.363 43.397C431.526 41.832 444.03 53.445 443.978 69.041C443.928 83.934 433.563 94.518 419 94.549C408.346 94.571 400.333 89.391 395.867 79.595C394.207 75.953 394.042 72.219 394.022 37.845L394 0.0949998H387.5H381V37.046ZM396.022 37.297C396.046 78.095 396.134 78.777 402.238 85.26C408.611 92.029 420.837 94.259 428.932 90.129C440.479 84.239 445.192 69.894 439.4 58.271C435.056 49.553 423.985 43.943 415 45.906L411.5 46.671L411.205 53.932L410.91 61.193L413.906 59.644C417.791 57.634 420.957 57.683 424.027 59.799C427.963 62.512 428.934 64.305 428.968 68.922C429.058 81.196 412.213 83.026 408.999 71.091C408.357 68.708 407.981 54.263 408.031 33.895L408.112 0.595L402.056 0.297L396 0L396.022 37.297ZM492 1.011C491.175 1.481 488.925 2.189 487 2.585C480.754 3.868 465 12.38 465 14.471C465 15.253 473.033 23.095 473.834 23.095C474.337 23.095 476.764 21.969 479.227 20.592C487.876 15.758 494.833 13.949 505 13.889C520.99 13.796 532.202 18.357 543.6 29.595C552.265 38.138 557.287 47.758 559.29 59.65L560.629 67.595L566.814 67.893L573 68.19L572.987 61.893C572.971 54.493 569.017 42.121 563.855 33.318C559.425 25.762 547.031 13.48 539.361 9.045C535.985 7.093 530.585 4.674 527.361 3.671C524.138 2.667 520.719 1.452 519.764 0.971C517.536 -0.153 493.982 -0.119 492 1.011ZM492.251 17.64C486.573 19.169 479.501 22.449 476.834 24.791C475.29 26.146 475.345 26.514 477.584 29.814C478.913 31.772 480 33.761 480 34.235C480 35.693 483.055 35.189 485.846 33.27C491.297 29.521 495.308 28.595 506 28.615C515.173 28.633 517.195 28.962 522 31.215C533.893 36.792 544.033 50.174 545.817 62.648L546.525 67.595H551.999C556.573 67.595 557.532 67.284 557.837 65.703C558.456 62.487 554.953 49.903 551.682 43.595C545.439 31.553 530.858 20.145 517.888 17.155C511.677 15.724 498.439 15.974 492.251 17.64ZM495.406 31.51C490.053 33.186 483 37.177 483.001 38.529C483.002 39.864 486.365 48.794 487.17 49.598C487.498 49.926 489.455 49.047 491.52 47.646C499.245 42.404 508.7 41.835 517.478 46.085C523.113 48.812 527.768 54.815 530.118 62.384L531.735 67.595L537.01 67.902C539.912 68.071 542.718 67.777 543.246 67.249C544.519 65.976 542.696 57.564 539.804 51.366C535.589 42.335 525.029 33.898 514.5 31.15C509.183 29.762 500.464 29.927 495.406 31.51ZM500.5 46.03C496.54 46.994 491.684 49.566 490.005 51.589C489.005 52.794 488.636 57.353 488.578 69.227L488.5 85.239L491.5 87.451C496.389 91.056 499.731 92.095 506.434 92.095C511.928 92.095 513.419 91.661 517.61 88.845C520.27 87.058 523.467 84.073 524.713 82.213C527.189 78.518 529.231 72.278 528.403 70.939C528.117 70.475 525.217 70.095 521.96 70.095C516.467 70.095 515.992 70.277 515.407 72.611C513.756 79.186 503.584 81.477 498.823 76.345C495.62 72.893 494.908 70.011 496.149 65.519C497.179 61.786 501.824 58.102 505.5 58.102C508.613 58.102 513.738 61.688 515.502 65.099C517.04 68.073 517.32 68.18 522.801 67.893C528.412 67.6 528.497 67.55 528.291 64.69C527.729 56.902 519.347 47.979 510.889 46.165C505.381 44.983 504.829 44.976 500.5 46.03ZM4.46899 48.316C4.19899 49.019 4.09501 68.72 4.23901 92.095L4.5 134.595L51.209 134.855L97.918 135.115L99.006 130.855C99.604 128.512 100.582 125.346 101.179 123.82L102.264 121.044L117.239 121.32L132.214 121.595L134.357 128.095L136.5 134.595L150.25 134.873C161.783 135.107 164 134.915 164 133.687C164 132.476 160.369 122.106 156.965 113.595C156.525 112.495 153.841 105.295 151 97.595C148.159 89.895 145.476 82.695 145.037 81.595C143.672 78.171 141.319 72.048 136.489 59.345L131.832 47.095H116.885C103.534 47.095 101.876 47.282 101.365 48.845C100.572 51.27 92.514 73.045 84.341 94.845L77.5 113.095L54.683 112.845L31.867 112.595L31.683 80.095L31.5 47.595L18.23 47.316C8.16801 47.104 4.84099 47.346 4.46899 48.316ZM166 91.095V135.095H179H192V112.536C192 100.129 192.361 90.2 192.801 90.472C193.242 90.745 200.267 100.896 208.412 113.031L223.221 135.095H236.111H249V91.095V47.095H236.019H223.038L222.769 69.158L222.5 91.221L210 73.067C203.125 63.082 196.26 53.153 194.744 51.004L191.987 47.095H178.994H166V91.095ZM260 91.168V135.24L286.75 134.88C312.202 134.536 313.735 134.407 318.346 132.218C327.898 127.682 335.612 118.677 338.523 108.666C339.867 104.039 340.133 99.869 339.824 88.224C339.462 74.605 339.243 73.215 336.65 68.095C332.019 58.95 324.707 52.277 315.712 48.99C311.135 47.317 307.569 47.095 285.264 47.095H260V91.168ZM305.048 70.348C310.291 73.881 312.281 78.241 312.808 87.343C313.885 105.951 307.781 114.095 292.757 114.095H288V91.095V68.095H294.852C300.305 68.095 302.387 68.555 305.048 70.348ZM531.742 70.798C531.504 71.236 530.724 73.756 530.009 76.398C528.155 83.256 521.457 90.406 514.42 93.039C505.833 96.252 499.994 95.571 491.713 90.392C489.63 89.089 487.546 88.257 487.083 88.544C486.619 88.83 485.47 91.421 484.528 94.3L482.815 99.536L485.658 101.812C490.298 105.527 497.659 107.525 506.5 107.469C513.242 107.426 515.522 106.942 521 104.391C532.751 98.919 542.515 85.973 543.223 74.927L543.5 70.595L537.838 70.298C534.724 70.134 531.981 70.359 531.742 70.798ZM546.595 71.345C546.406 72.033 545.684 75.07 544.991 78.095C538.919 104.579 508.838 118.407 486.267 105.09C484.407 103.993 482.34 103.095 481.672 103.095C479.903 103.095 475.338 111.85 476.531 112.953C479.055 115.285 487.222 118.984 493.107 120.46C513.699 125.624 535.264 117.795 547.437 100.735C552.698 93.363 556.701 83.487 557.629 75.596L558.275 70.095H552.606C548.92 70.095 546.817 70.532 546.595 71.345ZM560.579 71.345C560.381 72.033 559.695 75.745 559.054 79.595C555.614 100.262 537.835 118.72 517.081 123.171C504.853 125.793 487.256 122.839 477.79 116.575L473.949 114.033L469.265 118.459C463.906 123.522 464.081 124.3 471.564 128.685C486.958 137.707 507.567 140.381 524.032 135.494C550.406 127.664 570.77 103.544 572.703 77.845L573.286 70.095H567.112C563.03 70.095 560.816 70.519 560.579 71.345ZM121.898 87.595C126.27 101.793 126.523 101.095 117 101.095C108.046 101.095 108.059 101.11 110.369 93.88C111.122 91.523 112.538 86.895 113.515 83.595C114.493 80.295 115.733 76.47 116.272 75.095L117.252 72.595L118.036 75.095C118.467 76.47 120.205 82.095 121.898 87.595ZM35.272 156.532C27.16 158.497 17.961 163.519 12.811 168.793C7.98 173.74 2 183.887 2 187.138C2 188.149 1.55 189.255 1 189.595C0.426 189.95 0 195.182 0 201.883C0 211.945 0.346996 214.461 2.521 220.149C6.485 230.525 12.976 237.808 22.523 242.595C30.429 246.559 30.615 246.598 43.487 246.929C53.444 247.185 57.994 246.861 62.987 245.539C70.337 243.592 79.904 239.167 84.75 235.471L88 232.993V214.151C88 197.892 87.783 195.226 86.418 194.702C84.356 193.911 49.644 193.911 47.582 194.702C46.295 195.196 46 197.059 46 204.702V214.095H55H64V217.61C64 220.491 63.424 221.475 60.802 223.069C53.377 227.585 41.295 227.577 34.941 223.053C29.776 219.375 28.492 215.049 28.569 201.595C28.644 188.685 29.764 184.457 34.163 180.484C36.932 177.982 42.134 176.095 46.263 176.095C49.02 176.095 56.994 179.758 57.005 181.029C57.008 181.34 58.02 182.84 59.255 184.361L61.5 187.127L68.5 185.592C72.35 184.748 77.672 183.62 80.327 183.087C86.203 181.907 87.003 181.451 86.991 179.286C86.975 176.433 81.219 167.362 77.766 164.749C66.795 156.444 49.464 153.093 35.272 156.532ZM126 156.748C124.625 157.026 120.272 158.792 116.327 160.674C106.005 165.598 98.905 174.161 94.834 186.595C93.045 192.06 93.111 211.252 94.94 217.559C98.169 228.691 106.208 238.375 116.554 243.595C122.422 246.556 122.71 246.595 138.5 246.595C154.29 246.595 154.578 246.556 160.446 243.595C168.321 239.622 175.092 232.682 179.173 224.403C182.381 217.894 182.512 217.158 182.826 203.86C183.192 188.347 182.128 183.405 176.522 174.595C172.435 168.173 167.353 163.754 159.653 159.929C153.94 157.092 152.605 156.851 141 156.558C134.125 156.385 127.375 156.47 126 156.748ZM191.667 157.762C191.3 158.128 191 178.153 191 202.262V246.095H253.453C297.438 246.095 316.733 245.762 318.703 244.969C330.037 240.404 336.878 234.489 341.685 225.095C344.455 219.683 344.5 219.314 344.5 202.095C344.5 184.751 344.474 184.544 341.588 178.845C335.808 167.434 325.903 160.245 313 158.097C309.337 157.487 297.551 157.142 286 157.305L265.5 157.595L265.237 190.595L264.974 223.595L241.737 223.402L218.5 223.209L218.236 190.952C218.037 166.673 217.666 158.501 216.736 157.911C215.235 156.957 192.606 156.823 191.667 157.762ZM353.271 157.899C352.331 158.502 352.031 168.688 352 201.141C351.977 224.491 351.968 244.163 351.979 244.857C351.996 245.855 359.596 246.065 388.25 245.857L424.5 245.595L424.785 235.345L425.07 225.095H401.993H378.916L379.208 217.345L379.5 209.595L400.287 209.325L421.075 209.054L420.787 199.825L420.5 190.595L399.75 190.325L379 190.054V183.593V177.133L401.75 176.864L424.5 176.595V167.095V157.595L389.5 157.353C370.25 157.22 353.947 157.466 353.271 157.899ZM434.25 157.757C433.277 158.15 433 167.987 433 202.208V246.155L445.75 245.875L458.5 245.595L459 222.971L459.5 200.347L474.783 223.221L490.066 246.095H503.043H516.021L515.76 201.845L515.5 157.595H503H490.5L490 180.095L489.5 202.595L485.083 196.095C469.447 173.083 460.456 160.366 458.746 158.845C457.12 157.399 454.931 157.109 446.139 157.174C440.288 157.217 434.938 157.48 434.25 157.757ZM147.866 180.51C152.868 183.668 155.086 188.593 155.727 197.962C156.455 208.61 154.763 215.983 150.712 219.815C146.183 224.102 143.831 225.095 138.214 225.095C132.498 225.095 127.821 222.437 124.274 217.173C122.217 214.122 122 212.633 122 201.595C122 190.557 122.217 189.068 124.274 186.017C129.73 177.92 139.975 175.529 147.866 180.51ZM305.627 179.577C314.82 182.307 318.015 188.191 317.972 202.313C317.949 209.962 317.543 212.378 315.669 216.042C312.677 221.893 306.801 225.027 298.75 225.067L293 225.095V201.595V178.095H296.818C298.919 178.095 302.883 178.762 305.627 179.577Z" fill="black"/>
</svg>
