<svg width="788" height="154" viewBox="0 0 788 154" fill="none" xmlns="http://www.w3.org/2000/svg">
<path fill-rule="evenodd" clip-rule="evenodd" d="M6.84344 1.69818C5.69844 2.84318 4.76144 4.23018 4.76144 4.78018C4.76144 5.33018 3.90144 6.64018 2.85044 7.69118C1.57644 8.96518 0.712438 11.7282 0.256438 15.9842C-0.323562 21.3952 -0.0225604 23.5752 2.23244 30.3232C3.69444 34.6992 6.90344 42.0742 9.36244 46.7112C13.8194 55.1152 13.8284 55.1542 12.2974 58.9812C10.3894 63.7502 10.4004 69.0672 12.3284 74.2802C13.1424 76.4802 13.9754 80.4022 14.1794 82.9962C14.6834 89.4072 18.1754 96.2142 22.9134 100.023C25.0774 101.762 27.7514 104.646 28.8554 106.432C29.9594 108.218 32.5274 110.683 34.5614 111.911C36.5964 113.138 39.8394 115.536 41.7684 117.24C43.6974 118.943 46.8474 120.914 48.7684 121.619C50.6894 122.325 54.9614 124.279 58.2614 125.962L64.2614 129.022L64.4534 134.401L64.6464 139.78H48.9444H33.2434L31.0024 146.03C29.7694 149.468 28.7614 152.618 28.7614 153.032C28.7614 153.445 171.236 153.67 345.372 153.532L661.983 153.28L664.355 146.78C665.66 143.205 666.735 140.167 666.744 140.03C666.754 139.893 561.686 139.78 433.261 139.78C200.847 139.78 199.761 139.771 199.761 137.791C199.761 136.697 198.861 133.434 197.762 130.541C196.662 127.647 195.762 123.456 195.762 121.226C195.761 115.904 191.558 107.582 186.952 103.786C184.957 102.141 181.06 100.061 178.293 99.1622C175.525 98.2642 171.011 95.8382 168.261 93.7722C165.511 91.7062 161.787 89.2702 159.985 88.3592L156.708 86.7012L160.892 83.4912C163.193 81.7252 165.978 79.0612 167.082 77.5712C169.87 73.8102 170.412 65.5112 168.245 59.7802C167.309 57.3052 166.19 51.8292 165.758 47.6102C164.835 38.5902 161.093 30.7572 156.079 27.3502C154.296 26.1392 151.936 24.0012 150.834 22.5992C148.145 19.1812 143.542 17.4122 138.943 18.0292C134.449 18.6322 121.517 27.0162 116.805 32.3832C113.75 35.8622 109.794 43.5422 109.733 46.1132C109.718 46.7552 108.361 48.5992 106.718 50.2122C103.11 53.7522 100.504 61.7962 101.365 66.7352C101.704 68.6852 102.851 71.7992 103.912 73.6562C104.974 75.5132 105.711 77.1382 105.552 77.2682C105.392 77.3982 101.339 77.9982 96.5464 78.6022C88.4904 79.6162 87.4714 79.5392 83.0554 77.5862C79.3724 75.9572 76.1194 75.4512 68.8534 75.3762C62.4114 75.3112 59.2994 74.8952 59.0224 74.0632C58.7994 73.3942 57.4704 71.1572 56.0694 69.0932C54.6694 67.0292 52.8564 63.0762 52.0414 60.3102C50.9974 56.7642 49.2774 54.0782 46.2114 51.2062L41.8624 47.1332L42.8144 40.7062C43.3374 37.1722 44.3584 30.3992 45.0824 25.6562C46.5724 15.8972 45.9854 13.1252 42.2314 12.1832C38.7544 11.3102 35.1674 13.0632 32.9414 16.7242L31.1264 19.7082L27.1944 11.6122C25.0314 7.15918 22.3614 2.94318 21.2614 2.24318C20.1614 1.54318 16.9364 0.665182 14.0934 0.293182C9.65344 -0.289818 8.63344 -0.0918189 6.84344 1.69818ZM17.7844 15.9482C20.1794 21.5582 22.3044 25.6512 22.5064 25.0442C22.7094 24.4372 21.2494 20.0142 19.2624 15.2152C15.9404 7.19018 15.6264 3.79118 18.3694 5.57218C20.4464 6.91918 30.9704 28.7942 30.3364 30.4452C29.8404 31.7372 29.9974 31.8292 31.1104 30.9052C31.8774 30.2692 33.4684 27.1052 34.6464 23.8762C37.0414 17.3082 39.1934 14.8122 40.9474 16.5662C41.9914 17.6102 40.5694 30.1072 37.7214 44.9202C37.2314 47.4722 37.1024 51.8602 37.4344 54.6702C38.2944 61.9302 40.5124 61.2922 39.8694 53.9692C39.6934 51.9592 39.9244 51.7972 41.6444 52.7172C45.6734 54.8742 48.0224 59.6672 48.4654 66.6322C48.9534 74.3032 47.0824 78.3982 41.5534 81.7602C30.4854 88.4912 17.4994 82.0522 15.3774 68.7802C14.6994 64.5412 16.3264 58.7802 18.2014 58.7802C18.8854 58.7802 19.9824 60.5762 20.6404 62.7702C21.5174 65.6992 22.5034 66.9282 24.3454 67.3902C27.7854 68.2542 28.3254 67.3442 25.8444 64.8632C24.4284 63.4472 23.7614 61.5002 23.7614 58.7802C23.7614 55.5092 23.4134 54.7802 21.8504 54.7802C17.5974 54.7802 10.1114 41.7262 5.63144 26.4982C3.91144 20.6512 3.64144 18.5002 4.51844 17.6232C6.25644 15.8852 8.41644 18.1302 9.24244 22.5312C10.0614 26.8942 12.4364 31.7802 13.7384 31.7802C14.2474 31.7802 13.7954 29.8682 12.7344 27.5302C11.6734 25.1922 10.7954 22.2232 10.7834 20.9312C10.7714 19.6322 9.42144 17.3302 7.76144 15.7802C4.45944 12.6952 4.03344 11.2732 6.16744 10.4542C8.06844 9.72519 10.0564 12.2812 12.2534 18.2802C14.3894 24.1122 16.5914 27.7802 17.9584 27.7802C18.4894 27.7802 18.0394 26.3172 16.9574 24.5302C15.8744 22.7432 14.6764 20.1552 14.2934 18.7802C13.9114 17.4052 12.4204 13.8872 10.9814 10.9612C8.80744 6.54218 8.60444 5.49518 9.77944 4.76918C11.9814 3.40818 13.0914 4.95818 17.7844 15.9482ZM146.416 23.9082C147.156 24.5222 147.761 25.6142 147.761 26.3352C147.761 27.0562 148.596 27.9102 149.616 28.2342C156.205 30.3252 162.503 42.5012 161.518 51.2442C161.174 54.2962 161.531 56.0132 162.85 57.6412C165.282 60.6452 166.243 67.7892 164.802 72.1552C163.345 76.5722 158.027 81.3202 152.778 82.8932C148.271 84.2432 147.464 85.7802 151.261 85.7802C154.19 85.7802 154.369 86.4512 152.106 88.9512C150.546 90.6752 150.59 90.7812 152.856 90.7892C158.869 90.8132 172.044 101.211 177.024 109.865C183.1 120.422 180.964 125.064 169.464 126.295C156.274 127.708 124.294 122.951 106.28 116.898C101.53 115.301 97.4574 113.809 97.2294 113.581C97.0014 113.354 97.3054 111.393 97.9044 109.224C99.5174 103.382 98.3944 94.6062 95.3314 89.1262C93.8884 86.5452 93.0664 84.0752 93.5044 83.6372C93.9424 83.1992 97.9814 82.7502 102.48 82.6392C109.891 82.4572 111.023 82.6892 114.514 85.1092C118.469 87.8502 121.102 88.7212 118.961 86.5802C116.474 84.0932 117.574 82.6612 121.511 83.2632C125.128 83.8152 125.084 83.7612 120.261 81.7302C113.494 78.8812 109.367 75.5772 107.402 71.4352C103.933 64.1252 106.273 54.1802 112.3 50.6252C114.763 49.1712 115.377 48.2222 115.029 46.4022C113.82 40.0772 126.214 26.7802 133.318 26.7802C134.347 26.7802 134.766 26.2362 134.424 25.3452C133.238 22.2532 143.011 21.0832 146.416 23.9082ZM129.834 42.4152C127.293 45.6452 127.009 52.8852 129.332 55.2092C131.665 57.5412 136.356 57.1972 138.204 54.5572C140.414 51.4032 140.25 43.5332 137.932 41.4352C135.276 39.0312 132.203 39.4032 129.834 42.4152ZM136.932 43.4352C138.95 45.2612 139.35 50.4122 137.659 52.7802C136.807 53.9732 136.694 53.7972 137.109 51.9232C137.872 48.4682 136.163 44.7802 133.798 44.7802C132.336 44.7802 131.85 45.3632 132.023 46.9102C132.18 48.3172 131.636 49.1402 130.422 49.3352C128.896 49.5792 128.692 49.1732 129.226 46.9552C129.866 44.2972 132.248 41.7802 134.123 41.7802C134.662 41.7802 135.926 42.5252 136.932 43.4352ZM149.06 43.2832C146.429 45.1262 144.355 51.0282 145.182 54.3202C146.083 57.9112 150.047 60.2332 152.779 58.7712C157.822 56.0712 158.874 46.3742 154.459 43.2812C151.817 41.4312 151.705 41.4312 149.06 43.2832ZM154.561 45.9802C155.932 47.3512 156.195 54.3942 154.905 55.1912C154.435 55.4822 154.253 54.6592 154.501 53.3622C155.108 50.1862 153.144 46.7802 150.707 46.7802C149.09 46.7802 148.839 47.2432 149.35 49.2802C150.024 51.9632 148.126 52.8942 147.153 50.3582C145.65 46.4432 151.542 42.9612 154.561 45.9802ZM406.261 56.2912C396.695 58.2522 383.988 64.7152 377.747 70.7942C370.942 77.4222 368.344 83.3302 368.297 92.2802C368.25 101.338 370.355 104.47 379.524 108.985C386.128 112.237 386.399 112.28 400.238 112.28C407.951 112.28 415.847 111.941 417.784 111.527C421.109 110.817 421.482 110.31 424.404 102.527C426.108 97.9912 427.407 94.1652 427.293 94.0252C427.178 93.8852 424.7 94.2232 421.786 94.7752C409.892 97.0312 401.603 95.1002 398.919 89.4492C397.713 86.9092 397.821 86.1382 399.976 81.9522C403.444 75.2122 411.034 71.4242 421.236 71.3402C427.662 71.2882 428.911 71.5822 431.144 73.6762L433.7 76.0712L434.647 73.6762C435.168 72.3582 436.942 68.0512 438.59 64.1042C441.277 57.6682 441.415 56.8532 439.924 56.2052C436.598 54.7622 413.431 54.8212 406.261 56.2912ZM230.256 57.0302C230.012 57.7182 225.527 69.9382 220.287 84.1882C215.048 98.4372 210.761 110.488 210.761 110.968C210.761 111.449 216.214 111.715 222.878 111.561L234.995 111.28L241.774 92.9682C245.502 82.8962 248.786 74.4212 249.072 74.1352C249.359 73.8492 249.405 75.3392 249.175 77.4472C248.509 83.5672 246.761 106.653 246.761 109.334C246.761 111.778 246.772 111.78 257.562 111.78H268.362L280.796 93.3482C287.635 83.2102 293.346 75.0322 293.488 75.1742C293.63 75.3152 290.824 83.4212 287.253 93.1872C283.683 102.952 280.761 111.131 280.761 111.361C280.761 111.591 286.31 111.78 293.093 111.78H305.425L306.487 108.53C307.07 106.743 310.792 96.5052 314.758 85.7802C318.723 75.0552 322.797 63.9182 323.81 61.0302L325.653 55.7802L306.457 55.7872L287.261 55.7942L277.886 70.3282C272.729 78.3222 268.345 84.6972 268.143 84.4952C267.94 84.2932 268.209 79.5782 268.738 74.0182C269.782 63.0652 268.985 58.5052 265.722 56.7592C262.881 55.2382 230.803 55.4842 230.256 57.0302ZM331.261 82.9162C325.761 97.8402 321.107 110.453 320.918 110.944C320.724 111.45 326.55 111.717 334.354 111.559L348.133 111.28L357.904 84.7802C363.279 70.2052 367.695 57.7182 367.718 57.0302C367.75 56.0912 364.467 55.7802 354.511 55.7802H341.261L331.261 82.9162ZM454.201 59.2692C453.399 61.1882 449.181 72.5502 444.828 84.5192C440.475 96.4882 436.435 107.531 435.851 109.059L434.789 111.838L447.891 111.559L460.994 111.28L464.232 102.28L467.469 93.2802L474.115 92.9842C477.77 92.8222 480.759 93.0472 480.757 93.4842C480.755 93.9222 479.407 97.8802 477.761 102.28C476.115 106.68 474.767 110.618 474.765 111.03C474.763 111.442 480.498 111.772 487.511 111.763L500.261 111.747L510.426 84.0132L520.592 56.2802L508.005 55.9992C498.603 55.7892 495.217 56.0422 494.624 56.9992C494.187 57.7032 492.409 62.2182 490.673 67.0302L487.516 75.7802H480.742H473.968L477.364 66.6442C479.233 61.6192 480.761 57.1192 480.761 56.6442C480.761 56.1692 475.113 55.7802 468.21 55.7802H455.659L454.201 59.2692ZM535.503 57.0302C530.439 70.4442 515.761 110.676 515.761 111.143C515.761 111.494 528.534 111.78 544.145 111.78H572.529L575.145 104.723C576.584 100.841 577.761 97.4662 577.761 97.2232C577.761 96.9792 570.786 96.7802 562.261 96.7802C553.736 96.7802 546.761 96.5842 546.761 96.3452C546.761 96.1062 547.2 94.7562 547.736 93.3452L548.711 90.7802H563.272H577.832L579.801 86.1872C580.884 83.6612 582.041 80.5112 582.374 79.1872L582.978 76.7802H568.421H553.865L554.902 73.8052L555.939 70.8302L571.502 70.5552L587.065 70.2802L589.361 64.2802C590.624 60.9802 591.681 57.7182 591.709 57.0302C591.749 56.0592 585.543 55.7802 563.868 55.7802C542.472 55.7802 535.865 56.0712 535.503 57.0302ZM600.38 74.5422C596.595 84.8482 591.991 97.4422 590.148 102.53L586.797 111.78H613.191H639.586L642.673 103.695C644.372 99.2482 645.761 94.9732 645.761 94.1952C645.761 93.0512 643.37 92.7802 633.261 92.7802C626.386 92.7802 620.761 92.3962 620.761 91.9272C620.761 91.2442 630.429 64.6762 633.277 57.5302C633.921 55.9162 632.941 55.7812 620.618 55.7922L607.261 55.8042L600.38 74.5422ZM670.384 56.5822C670.111 57.0222 665.853 68.3852 660.92 81.8322C655.988 95.2782 651.47 107.518 650.881 109.03L649.811 111.78L663.536 111.778L677.261 111.776L684.471 92.0282C688.437 81.1672 693.045 68.5672 694.711 64.0302L697.74 55.7802H684.31C676.923 55.7802 670.656 56.1412 670.384 56.5822ZM713.235 57.0302C703.681 82.8352 693.761 110.314 693.761 110.975C693.761 111.454 698.821 111.718 705.004 111.563L716.248 111.28L722.79 93.5782C726.388 83.8422 729.668 75.5402 730.078 75.1292C730.489 74.7192 730.598 76.8342 730.321 79.8312C730.044 82.8282 729.563 91.2432 729.252 98.5302L728.687 111.78H747.997H767.307L777.284 84.6642C782.771 69.7502 787.411 57.1502 787.594 56.6642C787.778 56.1782 782.784 55.7802 776.497 55.7802H765.067L758.777 73.0302C755.317 82.5182 752.211 90.5952 751.874 90.9812C751.537 91.3662 751.581 85.5162 751.973 77.9812C752.733 63.3742 751.993 58.5092 748.747 56.7722C745.889 55.2432 713.811 55.4762 713.235 57.0302ZM125.011 61.5102C124.324 61.7502 123.761 62.3862 123.761 62.9222C123.761 63.4592 124.164 63.6492 124.656 63.3452C125.149 63.0402 125.809 63.4642 126.125 64.2862C126.44 65.1082 127.318 65.7802 128.075 65.7802C128.832 65.7802 130.307 66.7262 131.354 67.8822C136.399 73.4582 142.478 74.1232 148.861 69.7982C151.281 68.1582 153.824 66.8082 154.511 66.7982C155.199 66.7882 155.761 66.2822 155.761 65.6732C155.761 64.9962 155.082 64.8612 154.011 65.3272C153.048 65.7452 149.278 66.2912 145.632 66.5402C138.477 67.0282 128.466 64.8032 127.052 62.4112C126.617 61.6752 125.699 61.2702 125.011 61.5102ZM143.261 68.7822C146.215 68.8032 146.869 69.0642 145.761 69.7802C143.46 71.2672 138.366 70.9612 136.202 69.2062C134.329 67.6862 134.348 67.6512 136.761 68.1922C138.136 68.5002 141.061 68.7662 143.261 68.7822ZM55.7164 82.0622C55.7984 88.9692 51.5104 96.2792 45.5614 99.3752C44.0754 100.148 40.4514 100.78 37.5064 100.78C30.3034 100.78 23.6564 96.6762 20.5694 90.3222C18.0574 85.1512 18.5204 83.9212 22.0974 86.2642C23.4774 87.1692 27.0634 88.1622 30.0654 88.4722C39.4924 89.4452 49.7014 83.1602 52.3064 74.7802L53.0834 72.2802L54.3774 75.2802C55.0894 76.9302 55.6914 79.9822 55.7164 82.0622ZM84.9624 83.4192C90.1204 86.9942 93.7594 93.3652 94.4474 100.023C95.5514 110.725 88.1904 121.146 77.2864 124.316C72.2754 125.772 67.1654 125.67 64.4384 124.059C63.9864 123.791 65.8044 122.558 68.4794 121.319C82.7854 114.691 86.9114 95.0002 76.4844 83.1142L73.2614 79.4402L77.1494 80.0702C79.2874 80.4162 82.8034 81.9232 84.9624 83.4192ZM73.4444 85.9352C78.1244 90.9612 79.2004 101.015 75.8484 108.396C71.5104 117.949 58.4904 122.205 49.3154 117.07C47.8324 116.24 48.2104 115.964 51.5684 115.427C56.7974 114.591 63.6184 109.35 66.6784 103.817C69.6114 98.5132 69.9514 89.9502 67.4234 85.0802C66.5094 83.3192 65.7614 81.6202 65.7614 81.3042C65.7614 80.2572 71.2234 83.5492 73.4444 85.9352ZM62.7724 85.0302C64.9794 88.6502 65.4144 95.9262 63.6944 100.465C62.1784 104.468 58.8894 107.754 54.2614 109.89C48.8784 112.374 43.9574 112.246 38.7374 109.486C34.0184 106.99 31.9114 104.058 35.7014 105.261C36.8984 105.641 40.1884 105.397 43.0134 104.72C51.7454 102.625 59.7614 92.6672 59.7614 83.9142C59.7614 80.9752 60.4574 81.2332 62.7724 85.0302ZM187.239 110.28C193.113 118.127 193.106 129.067 187.222 136.421L184.935 139.28L184.287 136.28C183.93 134.63 183.044 131.914 182.318 130.243C181.15 127.559 181.215 126.937 182.879 124.883C185.54 121.597 185.22 117.253 181.782 109.986L178.805 103.693L181.899 105.486C183.601 106.473 186.004 108.63 187.239 110.28ZM116.439 124.184C134.487 128.733 144.562 130.099 161.621 130.313C179.506 130.538 179.718 130.61 179.746 136.53L179.761 139.78H124.868C64.1724 139.78 68.7614 140.307 68.7614 133.338C68.7614 130.155 68.9064 130.041 73.6834 129.476C79.9834 128.73 87.6564 124.839 91.3614 120.511L94.2614 117.124L100.439 119.416C103.837 120.677 111.037 122.823 116.439 124.184ZM194.761 136.78C194.761 139.113 194.317 139.78 192.761 139.78C190.342 139.78 190.301 139.411 192.376 136.245C194.455 133.072 194.761 133.14 194.761 136.78Z" fill="black"/>
</svg>
