<svg width="292" height="202" viewBox="0 0 292 202" fill="none" xmlns="http://www.w3.org/2000/svg">
<path fill-rule="evenodd" clip-rule="evenodd" d="M0 9.16743V18.3349H146H292V9.16743V0H146H0V9.16743ZM0.124885 32.4368C0.0564095 32.5056 0 50.6637 0 72.7885V113.015H9.95304H19.9061L19.983 85.5117L20.0599 58.0088L26.0863 70.7086C29.4006 77.6935 34.6439 88.7513 37.738 95.2812C44.0995 108.707 44.6238 109.506 48.2599 111.318C49.4171 111.895 51.2433 112.502 52.3911 112.691C53.8577 112.933 64.7513 113.006 90.3309 112.948L126.214 112.865L136.024 100.34C141.42 93.4513 145.919 87.867 146.021 87.9304C146.124 87.9935 150.603 93.6635 155.975 100.53L165.742 113.015H196.38C230.488 113.015 229.155 113.091 232.26 110.979C234.242 109.631 235.599 107.923 236.546 105.585L237.25 103.847L237.334 80.7077L237.419 57.5676L240.61 64.3265C243.61 70.6794 258.376 101.813 260.172 105.571C261.309 107.951 263.047 109.815 265.298 111.069C268.377 112.785 270.342 113.015 281.921 113.015H292V72.7383V32.4617H282.047H272.094L272.017 62.7257L271.94 92.9896L267.74 84.1414C265.431 79.2748 260.84 69.6124 257.539 62.6692C254.238 55.726 250.768 48.4221 249.829 46.4383C248.889 44.4545 247.671 42.0557 247.123 41.1074C245.687 38.6271 243.049 35.9225 240.75 34.5741C236.908 32.3211 239.442 32.4503 200.776 32.5357L166.124 32.612L156.137 45.368C150.645 52.3836 146.015 58.0662 145.849 57.9956C145.6 57.8898 134.415 43.7491 127.49 34.7845L125.685 32.4482L94.5917 32.5303L63.4979 32.612L61.5001 33.5552C59.0416 34.716 57.3759 36.1801 56.3249 38.1038C54.5759 41.306 54.6013 40.8672 54.5744 68.2177L54.5497 93.3275L53.855 91.8246C53.4728 90.998 51.2285 86.264 48.8678 81.3046C46.5067 76.3452 42.3008 67.4858 39.5208 61.6172C30.2579 42.0632 29.2027 40.0163 27.3376 37.9784C25.4625 35.93 23.0306 34.1978 20.6934 33.2462C19.2807 32.6709 18.3821 32.6072 9.70236 32.4656C4.50368 32.3809 0.193662 32.3679 0.124885 32.4368ZM124.16 59.8137C129.684 66.8396 134.21 72.7624 134.219 72.9755C134.228 73.1886 129.79 79.0371 124.356 85.9722L114.477 98.5812L94.4928 98.5842L74.5083 98.5875V89.2697V79.952H90.4959H106.483V72.588V65.224H90.4959H74.5083V56.0545V46.8849L94.3127 46.9622L114.117 47.0394L124.16 59.8137ZM217.492 56.0566V65.224H201.504H185.517V72.588V79.952H201.504H217.492V89.2697V98.5875H197.446H177.401L167.507 85.9358C162.066 78.9773 157.614 73.1696 157.614 73.0302C157.614 72.8907 162.161 66.9568 167.719 59.8435L177.824 46.9108L197.658 46.9L217.492 46.8892V56.0566ZM0 136.159V145.176H146H292V136.159V127.142H146H0V136.159ZM0 184.551V201.984H4.069H8.13769L8.21672 189.886C8.29123 178.418 8.32109 177.843 8.78956 178.84C9.82091 181.035 13.4033 189.372 14.9894 193.267C17.1218 198.504 18.0711 199.98 20.0279 201.098C21.5392 201.962 21.652 201.978 26.0176 201.981L30.4669 201.984V184.551V167.118H26.3946H22.3223L22.3205 180.117L22.3187 193.117L19.7408 187.406C18.3227 184.265 16.0516 179.214 14.6935 176.181C10.94 167.797 10.1256 167.118 3.82617 167.118H0V184.551ZM36.2626 181.492L36.3492 195.866L37.2587 197.638C38.2348 199.539 39.8465 200.807 42.1264 201.469C42.8447 201.678 47.0536 201.843 53.1663 201.903L63.0455 202V198.686V195.371H55.3868C45.6941 195.371 46.3037 195.687 46.3037 190.665V187.106L53.468 187.025L60.6322 186.945V183.794V180.643H53.3926H46.1529V177.037V173.43H54.2975H62.4421V170.274V167.118H49.3091H36.176L36.2626 181.492ZM65.157 167.267C65.157 167.349 67.8625 171.13 71.1693 175.67L77.1815 183.925L71.0184 192.667C67.6288 197.475 64.8554 201.538 64.8554 201.696C64.8554 201.866 66.5932 201.984 69.0845 201.984C73.0163 201.984 73.3927 201.934 74.4389 201.272C75.9734 200.3 76.1378 200.085 79.4753 194.695C81.0873 192.091 82.4957 189.967 82.6049 189.975C82.7144 189.982 84.2969 192.38 86.1219 195.303C90.3643 202.098 90.1755 201.972 96.1519 201.979C98.5159 201.982 100.45 201.91 100.45 201.819C100.45 201.729 97.6619 197.602 94.2539 192.648L88.0573 183.641L94.0753 175.455L100.093 167.268L95.37 167.176C91.3251 167.098 90.5022 167.16 89.6398 167.614C88.6887 168.113 87.4745 169.765 83.7313 175.652L82.6052 177.423L79.6291 172.877C77.6584 169.867 76.3164 168.127 75.656 167.726C74.7683 167.186 74.139 167.12 69.9081 167.119C67.2948 167.118 65.157 167.185 65.157 167.267ZM101.657 181.191C101.657 197.175 101.659 197.193 103.937 199.463C104.923 200.445 105.7 200.882 107.316 201.362C109.246 201.934 110.181 201.984 118.959 201.984H128.504V198.678V195.371H120.798H113.092L112.352 194.634C111.651 193.936 111.612 193.709 111.612 190.426V186.955H118.784H125.955L125.908 184.025C125.882 182.413 125.845 180.993 125.825 180.869C125.805 180.745 122.599 180.643 118.7 180.643H111.612V177.037V173.43H119.756H127.901V170.274V167.118H114.779H101.657V181.191ZM133.029 184.551V201.984H137.098H141.167L141.246 189.796L141.324 177.607L143.958 183.709C145.406 187.065 147.276 191.502 148.113 193.568C150.097 198.463 151.288 200.247 153.229 201.227C154.626 201.933 155.025 201.984 159.112 201.984H163.496V184.551V167.118H159.424H155.351V179.952C155.351 187.011 155.238 192.658 155.098 192.501C154.96 192.344 153.038 188.158 150.828 183.198C145.202 170.573 144.907 169.985 143.669 168.902C141.902 167.356 140.987 167.118 136.809 167.118H133.029V184.551ZM179.785 170.274V173.43H185.064H190.343V187.707V201.984H195.32H200.298V187.707V173.43H205.124H209.95V170.274V167.118H194.868H179.785V170.274ZM212.967 184.551V201.984H217.793H222.62V184.551V167.118H217.793H212.967V184.551ZM229.859 184.551V201.984H234.837H239.814V195.328V188.672L242.087 188.843C246.54 189.179 248.469 191.254 250.676 198.083L251.936 201.984H257.187C260.621 201.984 262.438 201.876 262.438 201.671C262.438 201.5 262.178 200.85 261.859 200.229C261.541 199.607 260.779 197.833 260.165 196.286C258.337 191.682 256.226 188.543 253.944 187.038L252.762 186.259L254.537 185.41C256.988 184.238 258.942 182.097 259.59 179.875C260.845 175.575 258.68 170.845 254.484 168.718C251.76 167.337 249.796 167.129 239.437 167.123L229.859 167.118V184.551ZM264.914 181.169C265.022 194.958 265.037 195.253 265.711 196.942C266.613 199.204 268.242 200.599 270.902 201.388C272.72 201.928 273.814 201.984 282.455 201.984H292V198.678V195.371H284.294H276.588L275.848 194.634C275.147 193.936 275.107 193.709 275.107 190.426V186.955H282.196H289.285V183.799V180.643H282.196H275.107V177.037V173.43H283.252H291.397V170.274V167.118H278.1H264.804L264.914 181.169ZM248.165 174.014C249.752 174.732 250.447 175.999 250.447 178.175C250.447 181.336 248.582 182.411 243.057 182.434L239.814 182.447V177.938V173.43L243.358 173.436C246.186 173.441 247.158 173.558 248.165 174.014Z" fill="black"/>
</svg>
