<svg width="682" height="140" viewBox="0 0 682 140" fill="none" xmlns="http://www.w3.org/2000/svg">
<path fill-rule="evenodd" clip-rule="evenodd" d="M30.4764 0.524423C27.5078 1.11021 24.6845 2.71032 21.7626 5.46428C17.3357 9.63715 17.1852 10.0652 14.218 26.8809C12.7535 35.1796 11.5573 42.5091 11.5587 43.1683C11.5679 46.3201 15.66 51.8203 19.1533 53.3763C20.11 53.802 29.5529 54.0168 55.081 54.1937C87.3731 54.417 89.8304 54.4923 91.4777 55.3091C93.7017 56.4122 94.9311 58.796 94.4886 61.1473C94.0634 63.4056 92.7763 64.931 90.2786 66.1361C88.2321 67.1236 87.7285 67.1365 51.8806 67.1365H15.5561L7.77781 78.0421L0 88.9476L52.781 89.0694C112.167 89.207 108.156 89.4447 112.528 85.5269C116.685 81.8022 117.433 79.6072 120.476 62.2153C121.94 53.8404 123.139 46.3834 123.139 45.6447C123.139 43.4242 121.753 39.4752 120.421 37.8972C119.733 37.0818 118.277 35.9394 117.186 35.3575C115.205 34.301 115.169 34.3 79.589 34.0603C47.3402 33.8432 43.859 33.7449 42.746 33.0177C41.5286 32.222 39.9208 29.4809 39.941 28.2356C39.9664 26.6647 41.9139 23.4639 43.3895 22.5671C44.944 21.6227 45.7367 21.6002 77.9965 21.5988L111.012 21.5968L118.759 11.0321C123.019 5.22171 126.505 0.368141 126.505 0.246383C126.505 -0.15197 32.5268 0.120318 30.4764 0.524423ZM146.462 0.510993C146.297 0.777999 144.131 12.4807 141.65 26.5165C139.169 40.5524 135.72 60.0385 133.987 69.8185C132.253 79.5985 130.834 87.9611 130.834 88.4016C130.834 89.1336 131.945 89.1921 143.66 89.0751L156.485 88.9476L164.292 44.846C168.586 20.5902 172 0.582898 171.88 0.38492C171.535 -0.179293 146.814 -0.0570545 146.462 0.510993ZM204.664 0.92757C195.796 3.52333 185.816 11.3154 181.843 18.7451C180.572 21.1218 179.985 23.324 178.677 30.618C177.794 35.543 176.065 45.1816 174.836 52.0365C172.436 65.4223 172.374 67.1063 174.102 72.1128C175.564 76.3489 177.022 78.7391 180.08 81.9158C183.579 85.5499 186.124 87.127 190.406 88.3101C193.383 89.1326 196.514 89.1873 240.759 89.1873H287.938L289.722 79.0008C290.703 73.3985 291.5 68.6527 291.493 68.4548C291.485 68.2568 271.946 68.0943 248.071 68.0933C205.605 68.0919 204.629 68.0708 203.096 67.1389C200.65 65.6524 199.609 63.5451 199.663 60.1857C199.688 58.6038 199.86 56.7702 200.044 56.1111L200.378 54.9127H243.163H285.948L288.593 53.6707C291.81 52.1602 294.477 49.5112 296.1 46.2132C297.445 43.4822 301.572 21.859 301.577 17.5222C301.582 12.2248 296.38 5.18961 290.008 1.87624L286.91 0.265079L247.23 0.173998C210.582 0.0896298 207.329 0.147164 204.664 0.92757ZM316.059 2.52913C315.781 3.92073 314.996 8.29444 314.313 12.2492C313.631 16.204 312.961 19.8174 312.825 20.2786C312.591 21.0729 314.76 21.1179 353.613 21.128C392.951 21.1381 394.732 21.1764 396.669 22.0532C398.235 22.7617 398.786 23.3273 399.111 24.5593C399.691 26.7581 399.066 29.1085 397.452 30.8011C394.381 34.021 397.48 33.8067 351.823 33.9534L310.441 34.0857L305.693 61.0375C303.082 75.8605 300.848 88.2588 300.73 88.5881C300.561 89.0579 303.331 89.1873 313.567 89.1873C323.572 89.1873 326.672 89.0473 326.84 88.5881C326.962 88.2588 328.252 81.1939 329.709 72.8889C331.166 64.5839 332.485 57.193 332.64 56.4644L332.922 55.1399L349.349 55.266L365.777 55.3921L371.314 62.6583C374.36 66.6548 385.04 80.7304 395.048 93.9369L413.243 117.949H430.097C443.516 117.949 446.853 117.827 446.47 117.35C446.205 117.021 435.668 102.945 423.053 86.0714L400.117 55.3921L402.432 55.0258C403.706 54.8245 406.113 54.4396 407.782 54.1702C414.873 53.0254 419.266 50.1301 421.788 44.9405C422.957 42.5345 423.698 39.3405 425.687 28.1354C427.445 18.2288 428.051 13.7372 427.821 12.3163C427.035 7.46803 423.949 3.28172 419.775 1.40117L417.254 0.265079L366.908 0.132305L316.563 0L316.059 2.52913ZM441.31 0.61167C441.093 1.23389 437.695 20.1913 437.695 20.7771C437.695 20.953 456.401 21.1553 479.264 21.2268C520.655 21.3567 520.839 21.3615 522.191 22.3648C526.279 25.3991 523.696 32.0456 517.859 33.5105C516.298 33.9021 504.12 34.0603 475.513 34.0603H435.358L434.86 36.577C434.586 37.9614 433.578 43.6237 432.621 49.1603C431.664 54.697 430.141 63.4243 429.238 68.5545C428.334 73.6846 427.595 78.3901 427.595 79.0104C427.595 79.6753 429.026 81.9959 431.082 84.6621L434.569 89.1854L443.072 89.1863L451.575 89.1873L452.072 86.6706C452.345 85.2862 453.714 77.6825 455.113 69.773L457.658 55.3921L474.072 55.266L490.487 55.1399L503.367 72.1636L516.247 89.1873H533.045C543.703 89.1873 549.783 89.0171 549.681 88.7214C549.593 88.4654 544.031 80.9043 537.321 71.9191C530.611 62.9334 525.201 55.5028 525.298 55.4065C525.395 55.3096 527.314 54.9903 529.562 54.697C536.511 53.7891 539.7 52.6079 542.783 49.8003C545.731 47.1144 547.407 44.2679 548.24 40.5317C549.626 34.3168 552.647 15.6944 552.643 13.3935C552.634 8.55763 549.201 3.44374 544.514 1.28276C542.315 0.268907 542.125 0.26461 491.915 0.132305C451.379 0.0258862 441.481 0.119842 441.31 0.61167ZM577.05 0.864285C576.634 1.32543 573.025 6.23317 569.031 11.7698L561.769 21.8365L604.74 22.0762L647.71 22.3159L649.738 23.6533C652.017 25.1566 653.5 27.2802 653.958 29.6971C654.239 31.1793 653.372 39.0323 652.825 39.9632C652.698 40.178 651.858 39.4963 650.958 38.448C650.058 37.3996 648.197 35.9835 646.822 35.3009L644.324 34.0603H606.989C564.327 34.0603 567.041 33.8072 562.241 38.2351C557.456 42.6505 556.914 44.2219 553.793 62.7211C551.853 74.221 551.189 79.2654 551.417 80.7778C551.868 83.7772 554.109 86.6198 557.125 88.0196L559.622 89.1777L597.72 89.1825C634.699 89.1873 635.896 89.159 638.401 88.2247C639.821 87.6955 641.885 86.4923 642.988 85.5508C645.094 83.7547 645.196 83.8587 644.556 87.1572L644.159 89.2022L657.683 89.0747L671.207 88.9476L676.588 58.7476C679.547 42.1376 681.983 27.3526 681.999 25.8919C682.098 17.2078 675.312 6.25666 667.487 2.46871C665.83 1.66673 663.067 0.79045 661.347 0.521526C659.408 0.218088 642.962 0.0311463 618.014 0.0292289C580.328 0.0253939 577.76 0.0781262 577.05 0.864285ZM271.471 22.2651C274.58 23.5598 275.298 26.3056 273.994 31.9032L273.436 34.3L238.666 34.4232L203.897 34.5459L204.191 32.7454C204.739 29.3827 205.866 27.0697 207.913 25.1043C211.762 21.4075 209.557 21.6376 241.353 21.616C264.683 21.6002 270.158 21.7181 271.471 22.2651ZM640.647 56.3412C645.027 58.5985 645.029 62.7297 640.652 65.9477L639.036 67.1365H611.057C583.609 67.1365 583.055 67.1178 581.829 66.1572C579.219 64.1107 579.859 60.0491 583.26 57.0727L584.906 55.6317H612.088C635.146 55.6317 639.48 55.7396 640.647 56.3412ZM446.159 105.126C450.526 111.387 449.553 110.855 456.321 110.676C459.569 110.59 462.226 110.532 462.225 110.549C462.225 110.584 458.589 131.038 457.696 136.036C457.355 137.943 457.188 139.614 457.325 139.751C457.463 139.888 460.024 140 463.017 140C468.266 140 468.468 139.962 468.708 138.921C468.845 138.328 469.93 132.234 471.12 125.379C472.31 118.524 473.395 112.436 473.532 111.85C473.773 110.813 473.98 110.78 481.103 110.651L488.427 110.519L489.017 107.163C489.341 105.318 489.717 103.215 489.852 102.49L490.097 101.171H466.749H443.4L446.159 105.126ZM493.782 102.01C493.454 103.104 487.235 138.652 487.235 139.433C487.235 139.884 488.618 139.997 492.854 139.895L498.474 139.76L501.737 121.305C503.532 111.154 505.007 102.471 505.016 102.01C505.03 101.259 504.455 101.171 499.532 101.171C494.712 101.171 494.003 101.275 493.782 102.01ZM511.057 101.771C510.948 102.1 510.622 103.664 510.332 105.246C510.041 106.828 509.699 108.608 509.573 109.201L509.342 110.279H527.532C541.038 110.279 545.87 110.427 546.299 110.855C547.255 111.808 546.985 113.984 545.807 114.806C544.885 115.45 542.235 115.552 526.568 115.552C516.575 115.552 508.398 115.721 508.398 115.928C508.398 116.134 507.534 121.149 506.478 127.073C505.422 132.996 504.556 138.328 504.554 138.921C504.55 139.977 504.665 140 510.081 140C513.124 140 515.624 139.946 515.639 139.88C515.653 139.814 516.25 136.525 516.965 132.57L518.266 125.379L525.476 125.273L532.687 125.167L538.218 132.578L543.75 139.989L551.084 139.994C555.119 139.998 558.419 139.887 558.419 139.75C558.419 139.613 556.022 136.323 553.092 132.439L547.766 125.379L549.365 124.988C550.245 124.772 551.756 124.392 552.723 124.143C555.959 123.309 557.19 121.241 558.424 114.567C560.08 105.615 559.867 103.955 556.825 102.106C555.367 101.22 554.228 101.175 533.273 101.173C516.082 101.172 511.21 101.303 511.057 101.771ZM571.139 102.356C567.879 103.981 565.376 106.133 563.971 108.523C562.411 111.177 559.253 128.438 559.847 131.065C560.522 134.051 562.604 136.999 565.046 138.429L567.317 139.76H588.48H609.643L610.461 135.686C610.912 133.445 611.291 131.342 611.303 131.012C611.321 130.542 607.185 130.413 592.162 130.413C574.207 130.413 572.947 130.358 572.201 129.536C571.764 129.054 571.405 127.874 571.405 126.916V125.171L590.369 125.036C608.661 124.905 609.38 124.865 610.661 123.912C611.391 123.368 612.386 122.392 612.872 121.744C613.952 120.302 615.965 109.179 615.489 107.287C615.08 105.666 612.592 102.791 610.798 101.866C609.691 101.296 606.232 101.171 591.484 101.171H573.518L571.139 102.356ZM625.237 102.261C622.391 104.173 621.714 105.736 620.467 113.283C619.166 121.156 619.298 122.048 622.018 123.701C623.5 124.601 624.454 124.657 638.514 124.658C651.241 124.66 653.595 124.77 654.506 125.407C655.834 126.333 655.875 127.717 654.614 128.975C653.685 129.901 653.011 129.933 634.903 129.933H616.154L615.892 131.012C614.883 135.157 614.38 139.615 614.898 139.813C615.206 139.931 625.768 139.967 638.368 139.894C660.801 139.763 661.306 139.739 662.635 138.751C664.868 137.092 665.545 135.325 666.906 127.597C668.136 120.607 668.162 120.144 667.416 118.583C666.033 115.693 665.145 115.552 648.232 115.552C637.153 115.552 633.009 115.4 632.585 114.977C631.808 114.203 631.857 112.587 632.69 111.449C633.333 110.572 634.23 110.505 648.366 110.279L663.359 110.04L666.467 105.606L669.575 101.171H648.218H626.86L625.237 102.261ZM603.419 111.436C604.018 112.252 604.003 113.369 603.365 115.433C603.222 115.895 599.775 116.032 588.254 116.032C571.843 116.032 572.49 116.164 574.057 113.144C575.482 110.398 576.158 110.282 590.083 110.406C601.925 110.512 602.791 110.578 603.419 111.436Z" fill="black"/>
</svg>
