<svg width="490" height="150" viewBox="0 0 490 150" fill="none" xmlns="http://www.w3.org/2000/svg">
<path fill-rule="evenodd" clip-rule="evenodd" d="M470.5 11.3108L451.5 22.9148L243.25 23.1718C128.712 23.3128 35 23.5998 35 23.8078C35 24.5558 27.945 68.9728 27.399 71.6648L26.841 74.4148H33.921C37.814 74.4148 41 74.6558 41 74.9498C41 75.2438 31.775 87.3728 20.5 101.903C9.225 116.433 0 128.566 0 128.866C0 129.165 79.418 129.523 176.485 129.662L352.971 129.915L347.383 136.915C344.311 140.765 340.841 145.252 339.673 146.886L337.549 149.857L341.025 147.75C342.936 146.592 350.488 141.993 357.807 137.53L371.113 129.415H386.402C400.42 129.415 401.84 129.249 403.5 127.415C405.782 124.894 406.7 124.894 407.5 127.415C408.117 129.36 409.013 129.415 440.067 129.415C457.63 129.415 472 129.097 472 128.707C472 128.318 466.15 116.436 459 102.302C451.85 88.1678 446 76.0808 446 75.4408C446 74.8008 455.449 62.8328 466.998 48.8458L487.997 23.4148H479.998C475.599 23.4148 472 23.0548 472 22.6148C472 22.1748 476.099 16.9748 481.11 11.0578C486.12 5.14181 490.057 0.16681 489.86 0.00380977C489.662 -0.15919 480.95 4.92881 470.5 11.3108ZM417.468 31.1428L418.153 33.8708L419.808 31.1428C421.419 28.4878 421.71 28.4148 430.732 28.4148C435.829 28.4148 440 28.5968 440 28.8198C440 29.0428 437.048 30.9528 433.441 33.0628C427.887 36.3118 426.124 38.0808 421.941 44.6018C419.223 48.8378 417 52.7788 417 53.3598C417 56.1688 415.345 53.8878 414.319 49.6648C413.684 47.0528 412.447 43.2268 411.569 41.1648L409.973 37.4148H394.487C385.969 37.4148 379 37.6958 379 38.0398C379 38.3838 383.08 46.4858 388.067 56.0428L397.134 73.4198L377.213 98.6678L357.293 123.915L184.147 124.168C71.498 124.332 11 124.078 11 123.44C11 122.901 20.17 110.637 31.378 96.1868L51.755 69.9148L42.378 69.6288C37.22 69.4708 33.01 69.0208 33.022 68.6288C33.034 68.2358 34.38 59.5898 36.013 49.4148C37.646 39.2398 38.987 30.3528 38.991 29.6648C38.998 28.6688 77.45 28.4148 227.892 28.4148H416.783L417.468 31.1428ZM476.212 29.6648C475.643 30.3528 467.066 40.7678 457.15 52.8108L439.121 74.7068L451.561 98.8948C458.402 112.199 464 123.391 464 123.766C464 124.141 452.215 124.328 437.811 124.182L411.622 123.915L409.483 118.592L407.344 113.269L403.506 118.842L399.668 124.415H390.334C385.2 124.415 381 124.241 381 124.029C381 123.817 384.137 121.78 387.97 119.502C393.749 116.069 395.951 113.939 400.852 107.043C404.104 102.468 407.283 97.7548 407.917 96.5698C409.308 93.9708 410.999 93.7488 411.002 96.1648C411.002 97.1278 412.497 101.74 414.323 106.415L417.643 114.915L433.322 115.19C444.636 115.389 449 115.145 449 114.315C449 113.682 444.466 104.436 438.924 93.7678C433.382 83.0998 428.994 73.9398 429.174 73.4118C429.353 72.8848 437.825 62.5518 448 50.4508L466.5 28.4488L471.872 28.4318C476.056 28.4188 477.016 28.6918 476.212 29.6648ZM46.505 40.6648C46.183 42.4528 45.334 47.6678 44.617 52.2548L43.314 60.5958L57.612 60.2548L71.911 59.9148L69.006 62.9148C67.408 64.5648 57.559 76.9398 47.118 90.4148L28.136 114.915L65.722 115.177C86.395 115.321 103.435 115.314 103.588 115.16C103.742 115.007 104.715 109.612 105.751 103.173L107.635 91.4638L92.412 91.1888L77.19 90.9148L93.703 69.9148C102.785 58.3648 112.219 46.3278 114.667 43.1648L119.117 37.4148H83.104H47.091L46.505 40.6648ZM125.596 40.1648C124.751 44.2868 114 113.034 114 114.311C114 115.089 121.805 115.415 140.397 115.415H166.795L167.841 109.165C168.416 105.728 169.188 100.777 169.557 98.1648L170.227 93.4148H158.05H145.873L146.187 90.1648L146.5 86.9148L157.5 86.4148L168.5 85.9148L170.073 76.4148C170.938 71.1898 171.474 66.5768 171.264 66.1648C171.054 65.7528 166.184 65.4148 160.441 65.4148C149.459 65.4148 149.369 65.3718 150.63 60.6648C151.212 58.4928 151.641 58.4148 163.037 58.4148H174.841L175.401 55.6648C176.235 51.5708 177.984 40.0988 177.992 38.6648C177.998 37.6968 172.153 37.4148 152.079 37.4148H126.159L125.596 40.1648ZM190.532 38.6648C189.862 40.7348 179 111.069 179 113.341C179 115.437 179.139 115.447 205.25 115.182L231.5 114.915L232.655 107.915C233.29 104.065 234.083 99.2278 234.417 97.1648L235.024 93.4148H222.405C211.309 93.4148 209.859 93.2238 210.393 91.8328C210.727 90.9628 211 89.3878 211 88.3328C211 86.5588 211.823 86.4148 221.981 86.4148C234.473 86.4148 232.973 87.6968 234.948 75.3328C236.665 64.5918 237.454 65.4148 225.437 65.4148H214.873L215.187 62.1648L215.5 58.9148L227.639 58.6348L239.779 58.3548L240.957 50.1348C241.606 45.6138 242.379 40.9018 242.676 39.6648L243.217 37.4148H217.077C197.048 37.4148 190.843 37.7068 190.532 38.6648ZM248.633 48.1648C246.249 63.7518 245.707 62.4988 254.5 61.7558C259.371 61.3438 262 61.4808 262 62.1468C262 62.7108 260.2 74.4758 258 88.2918C255.8 102.107 254 113.861 254 114.413C254 115.034 259.277 115.415 267.897 115.415H281.795L282.844 109.165C283.421 105.728 285.365 93.5208 287.164 82.0388L290.434 61.1638L298.217 61.8128C302.498 62.1698 306 62.2208 306 61.9278C306 60.9588 309.013 41.9628 309.531 39.6648L310.038 37.4148H280.158H250.277L248.633 48.1648ZM317 37.7778C317 37.9778 314.3 55.1398 311 75.9148C307.7 96.6898 305 114.077 305 114.552C305 115.027 316.879 115.415 331.397 115.415H357.795L358.883 109.165C359.481 105.728 360.263 100.777 360.621 98.1648L361.272 93.4148H349.073H336.873L337.187 90.1648L337.5 86.9148L348.49 86.4148L359.48 85.9148L360.612 79.4148C361.234 75.8398 361.998 71.2278 362.309 69.1648L362.874 65.4148H351.82C340.845 65.4148 340.771 65.3988 341.37 63.1648C341.701 61.9278 341.979 60.3528 341.986 59.6648C341.997 58.7348 345.07 58.4148 353.981 58.4148C365.601 58.4148 365.976 58.3468 366.429 56.1648C367.331 51.8208 369 40.7338 369 39.0828C369 37.5678 366.609 37.4148 343 37.4148C328.7 37.4148 317 37.5778 317 37.7778Z" fill="black"/>
</svg>
