<svg width="300" height="300" viewBox="0 0 300 300" fill="none" xmlns="http://www.w3.org/2000/svg">
<path fill-rule="evenodd" clip-rule="evenodd" d="M195.169 2.71232C191.508 6.44649 185.712 24.2933 186.597 29.1058C187.3 32.9247 191.755 37.1439 196.118 38.1211C197.782 38.4938 199.145 39.1064 199.145 39.4812C199.145 39.8559 197.775 44.3559 196.103 49.4788L193.059 58.7953L179.836 59.2579C172.283 59.5223 165.646 60.2514 164.359 60.957C161.889 62.314 161.274 66.5791 163.358 67.9005C164.047 68.3365 170.916 68.5591 178.624 68.3947C199.777 67.9423 216.19 71.8633 234.18 81.669C260.64 96.09 280.341 122.111 288.187 153C291.248 165.048 292.009 185.067 289.878 197.511C281.8 244.714 247.422 280.415 201.397 289.398C191.604 291.309 172.381 291.244 162.154 289.265C139.527 284.888 119.413 273.903 103.986 257.5C89.5267 242.125 82.2773 229.194 76.3143 208.14C73.2272 197.238 72.074 174.617 73.9849 162.448C80.2082 122.821 107.485 88.8667 144.325 74.8868C150.47 72.5546 151.742 71.0179 150.263 67.7075C148.621 64.0305 145.189 64.4583 133.61 69.7854L123.632 74.3753H106.054C87.5016 74.3753 84.0281 75.1574 84.0281 79.3347C84.0281 82.9209 86.1162 83.5652 97.742 83.5652C103.963 83.5652 109.053 83.7857 109.053 84.0543C109.053 84.3238 106.93 86.507 104.336 88.9045C91.9461 100.358 82.7688 112.674 75.8368 127.15L70.7927 137.684H54.9597C41.8994 137.684 38.8504 137.964 37.552 139.288C35.556 141.325 35.556 143.232 37.552 145.269C38.8374 146.579 41.7733 146.873 53.5683 146.873C61.5123 146.873 68.0119 147.075 68.0119 147.321C68.0119 147.567 67.2371 150.898 66.2911 154.724C64.9668 160.075 64.5634 166.211 64.5394 181.336L64.5083 200.992H40.3559C19.9012 200.992 16.0102 201.231 14.9332 202.554C13.9652 203.744 13.9291 204.712 14.782 206.621L15.9011 209.126L41.6152 209.399L67.3302 209.671L70.064 217.973C73.9719 229.839 80.8859 242.929 89.0021 253.834L96.0332 263.279H75.7157C61.249 263.279 55.0538 263.631 54.1979 264.504C52.359 266.38 52.7684 270.231 54.9326 271.412C56.1168 272.058 66.4333 272.469 81.4915 272.469H106.114L113.84 277.966C171.285 318.834 249.568 301.098 284.577 239.283C306.376 200.793 304.961 151.195 281.004 114.102C273.365 102.272 262.209 90.2758 251.399 82.2643C245.275 77.7255 243.259 75.6782 243.729 74.4753C244.079 73.5778 245.276 69.8569 246.388 66.2064C249.585 55.7238 249.486 55.83 254.389 57.5945C259.46 59.4202 264.145 58.2102 267.162 54.2984C268.253 52.8841 270.544 47.1639 272.254 41.5857C274.963 32.747 275.215 30.9887 274.215 27.8957C273.583 25.9444 272.087 23.6449 270.89 22.7862C267.626 20.4437 247.287 13.9781 244.296 14.3314C242.054 14.5969 241.688 15.131 241.688 18.1238V21.6068L253.141 25.5186C259.44 27.6691 265.008 29.8522 265.515 30.3689C266.396 31.2674 261.878 47.3059 260.22 49.1663C259.193 50.3191 195.141 28.5901 195.141 27.0891C195.141 24.2596 200.473 9.85391 201.698 9.37399C202.435 9.08604 208.256 10.6014 214.633 12.7426C227.441 17.0425 229.676 16.8525 229.676 11.4662C229.676 8.61225 229.277 8.37229 217.663 4.24398C202.961 -0.98202 199.052 -1.24853 195.169 2.71232ZM225.096 47.9277C233.671 50.7909 240.845 53.2885 241.038 53.4764C241.359 53.7899 236.236 70.2694 235.525 71.2078C235.356 71.4324 231.605 70.1591 227.191 68.3804C222.778 66.6006 215.449 64.153 210.907 62.942C206.365 61.7299 202.496 60.6261 202.31 60.4893C201.585 59.9563 207.622 42.7211 208.535 42.7211C209.069 42.7211 216.52 45.0645 225.096 47.9277ZM2.16824 75.9651C-0.344306 77.7602 -0.7327 80.701 1.31537 82.4348C2.28936 83.2588 11.3625 83.5172 32.597 83.3252L62.5063 83.0546L62.8196 79.735C63.0829 76.9495 62.7105 76.252 60.5023 75.3953C58.9877 74.8082 46.5241 74.3753 31.1316 74.3753C8.5507 74.3753 4.04614 74.6224 2.16824 75.9651ZM166.005 86.1751C130.103 92.8061 101.42 119.835 91.841 156.063C88.5387 168.556 88.5407 190.59 91.847 202.966C99.3826 231.177 117.388 253.395 142.396 265.343C155.03 271.379 163.815 273.551 178.123 274.175C188.236 274.617 192.463 274.336 200.156 272.706C219.078 268.699 235.086 259.716 248.695 245.468C263.06 230.428 271.947 211.216 274.4 189.897C278.042 158.223 264.832 125.911 239.916 105.551C219.225 88.6431 191.705 81.429 166.005 86.1751ZM197.143 95.1557C200.721 95.8613 203.612 96.8732 203.568 97.4052C203.523 97.9362 199.038 112.27 193.603 129.259L183.719 160.148H180.633C178.935 160.148 175.922 160.992 173.937 162.025L170.329 163.9L154.957 149.771C146.502 142.001 138.887 135.642 138.033 135.641C137.18 135.641 135.941 136.193 135.28 136.867C132.274 139.933 134.063 142.47 149.119 156.496L164.159 170.507L163.512 175.483C163.156 178.219 163.155 182.039 163.511 183.972C164.424 188.94 171.035 196.254 175.978 197.764C179.925 198.97 179.996 199.077 180.638 204.84C181.519 212.744 181.965 214.106 184.042 215.24C185.296 215.923 186.478 215.743 188.038 214.628C190.121 213.14 190.214 212.553 189.566 204.975C189.077 199.258 189.205 196.907 190.003 196.907C190.623 196.907 192.847 195.326 194.944 193.393L198.758 189.878L229.172 200.053C245.9 205.65 259.815 210.463 260.095 210.748C260.936 211.607 254.426 224.253 249.956 230.44C247.66 233.619 243.58 238.414 240.888 241.097C235.067 246.899 223.92 254.824 223.451 253.496C223.268 252.979 221.892 250.266 220.391 247.464C217.572 242.202 215.127 240.767 212.61 242.898C210.524 244.664 210.805 247.323 213.694 253.139L216.232 258.248L212.684 259.76C205.077 263.002 192.64 265.307 182.71 265.314C172.453 265.321 160.105 263.665 160.105 262.281C160.105 261.848 160.781 259.54 161.607 257.152C163.798 250.816 163.546 248.122 160.636 246.77C157.238 245.191 155.556 246.817 153.414 253.748C151.819 258.911 151.51 259.267 149.143 258.681C145.279 257.724 133.791 250.522 127.192 244.92C122.006 240.518 109.053 224.568 109.053 222.585C109.053 222.175 111.546 220.592 114.593 219.068C120.451 216.137 122.031 214.02 120.372 211.319C118.773 208.716 115.634 208.83 110.1 211.69L104.976 214.338L103.5 210.733C100.385 203.128 98.8121 194.954 98.3045 183.727C97.795 172.448 99.2245 158.743 101.029 157.605C101.472 157.326 103.74 157.785 106.069 158.623C111.836 160.698 114.78 160.546 116.061 158.106C117.772 154.843 115.687 152.37 109.572 150.409C106.534 149.433 104.048 148.181 104.048 147.626C104.048 147.071 105.442 143.802 107.144 140.363C113.142 128.25 123.091 116.704 134.112 109.07L139.963 105.017L142.777 110.29C146.104 116.527 148.31 118.263 150.846 116.642C153.53 114.925 153.466 111.809 150.629 106.098L148.044 100.892L150.655 99.8803C156.791 97.5001 163.086 95.6438 167.688 94.8585C175.207 93.574 189.878 93.7221 197.143 95.1557ZM220.666 103.221C232.684 109.331 246.964 123.098 254.236 135.583C259.108 143.949 263.651 156.721 265.153 166.274C267.246 179.575 265.369 201.617 262.163 201.395C261.314 201.337 247.236 196.747 230.882 191.197C203.415 181.876 201.147 180.927 201.147 178.763C201.147 175.178 198.367 169.17 195.131 165.759L192.22 162.689L202.261 131.251C213.501 96.0553 211.766 98.6969 220.666 103.221ZM19.713 107.132C17.702 108.327 17.3926 112.189 19.1624 113.994C20.0243 114.873 26.643 115.219 42.6152 115.219C61.5083 115.219 65.1029 114.977 66.4393 113.615C68.3933 111.621 68.3943 111.126 66.4533 108.299C64.9238 106.07 64.5023 106.03 43.1797 106.06C30.3007 106.078 20.752 106.515 19.713 107.132ZM0.955009 170.856C-1.13511 173.424 0.516565 177.164 4.05915 177.886C8.90505 178.876 33.546 178.644 36.2788 177.585C39.2578 176.429 40.3188 173.928 38.9435 171.306C37.9835 169.476 36.6632 169.338 20.0503 169.338C5.46557 169.338 1.96403 169.616 0.955009 170.856ZM189.234 172.509C198.142 182.237 184.269 196.184 175.043 186.775C168.586 180.188 173.007 169.338 182.149 169.338C185.535 169.338 186.881 169.94 189.234 172.509ZM28.7221 232.728C26.7111 233.922 26.4018 237.784 28.1716 239.589C28.9784 240.412 33.51 240.815 41.9855 240.815C50.4611 240.815 54.9927 240.412 55.7995 239.589C57.6384 237.714 57.229 233.863 55.0648 232.682C52.5733 231.322 31.0254 231.359 28.7221 232.728Z" fill="black"/>
</svg>
