<svg width="330" height="330" viewBox="0 0 330 330" fill="none" xmlns="http://www.w3.org/2000/svg">
<path fill-rule="evenodd" clip-rule="evenodd" d="M152.658 0.551004C139.261 2.41294 123.773 8.32392 111.705 16.1809C69.5825 43.6047 55.2241 99.5549 79.0064 143.595C88.5105 161.193 102.563 175.053 120.36 184.379C135.979 192.564 144.144 193.671 144.144 187.604C144.144 185.24 141.401 181.925 139.445 181.925C136.864 181.925 123.295 175.535 117.002 171.356C99.5402 159.762 86.7455 142.223 80.4048 121.192C78.1139 113.591 77.7393 110.48 77.6571 98.3833C77.578 86.7144 77.9456 82.9565 79.8599 75.8719C88.0067 45.7108 110.624 22.396 140.638 13.2164C148.801 10.7191 151.122 10.456 165.179 10.435C182.89 10.407 188.417 11.5255 202.086 17.9027C212.967 22.9803 221.253 28.9623 229.505 37.6997C237.668 46.3431 241.843 52.7603 246.525 63.8659C251.954 76.7424 252.832 81.5688 252.798 98.3833C252.764 115.33 251.631 120.777 245.268 134.593C241.358 143.083 234.38 153.621 229.875 157.837L227.285 160.263V147.517C227.285 140.507 226.818 133.899 226.248 132.835C224.848 130.224 219.704 130.224 218.304 132.835C217.696 133.97 217.268 142.474 217.268 153.411C217.268 164.348 217.696 172.852 218.304 173.987C218.961 175.211 220.399 175.922 222.218 175.922C225.91 175.922 258.416 171.211 260.661 170.351C262.892 169.495 263.904 165.293 262.333 163.403C260.865 161.635 255.077 161.475 246.942 162.978C237.88 164.651 237.552 164.213 242.812 157.458C270.365 122.067 269.919 71.9029 241.74 36.8523C226.219 17.5466 205.927 5.60555 181.326 1.30238C173.528 -0.062305 159.68 -0.424488 152.658 0.551004ZM162.349 52.7313C161.618 53.1945 160.774 55.4076 160.473 57.6518C159.967 61.4187 159.647 61.7788 156.291 62.3581C147.497 63.8789 140.137 72.8124 140.137 81.967C140.137 87.9841 141.179 90.7164 145.227 95.3217C149.722 100.435 153.233 101.969 161.95 102.627C168.207 103.101 170.001 103.645 172.386 105.793C176.247 109.272 176.973 114.307 174.242 118.669C171.422 123.172 168.829 123.896 155.532 123.896C143.115 123.896 140.128 124.729 140.152 128.183C140.183 132.687 141.55 133.381 151.119 133.75L160.171 134.1V136.78C160.171 138.253 160.873 140.459 161.731 141.682C164.911 146.217 170.188 143.345 170.188 137.08C170.188 133.717 170.594 133.183 174.862 130.921C181.574 127.364 185.213 121.294 185.213 113.655C185.213 100.737 176.787 92.9025 162.875 92.8865C153.488 92.8755 147.728 86.7154 150.177 79.3037C152.279 72.9445 154.891 71.8699 168.255 71.8699C182.363 71.8699 185.213 71.0665 185.213 67.0925C185.213 62.8824 183.517 61.8649 176.499 61.8649H170.188V58.063C170.188 55.9719 169.647 53.7208 168.986 53.0605C167.599 51.6748 164.278 51.5097 162.349 52.7313ZM301.911 180.583C300.809 180.814 298.928 181.21 297.731 181.464C296.534 181.717 293.522 183.474 291.039 185.368L286.522 188.811L280.751 185.688C273.901 181.983 265.01 181.345 259.708 184.18C256.373 185.962 241.933 201.32 226.335 219.675L216.871 230.812L213.313 229.287C171.946 211.563 128.611 197.149 103.575 192.787C69.4052 186.832 28.7543 198.096 5.64015 219.922C-0.581385 225.796 -0.596411 225.823 0.935184 228.626C3.13591 232.649 5.56302 232.674 9.77716 228.716C28.2955 211.323 56.8319 200.935 86.0934 200.935C105.28 200.935 141.26 210.892 185.913 228.559C216.471 240.65 218.365 241.985 219.06 251.916C219.38 256.486 219.035 258.071 217.102 260.911C213.939 265.561 208.978 268.299 203.884 268.208C201.604 268.167 187.425 264.72 172.377 260.547C157.328 256.375 144.627 252.961 144.151 252.961C140.645 252.961 138.803 260.186 141.89 261.826C142.855 262.338 156.433 266.238 172.064 270.493C196.992 277.278 201.207 278.164 206.372 277.697C217.178 276.717 225.689 269.464 228.392 258.929C229.093 256.197 229.92 253.942 230.229 253.918C230.538 253.894 234.104 253.49 238.155 253.022C245.05 252.224 245.719 251.926 248.673 248.335C255.971 239.458 287.557 202.938 293 197.082C298.271 191.411 299.391 190.68 303.414 190.288C311.535 189.494 320.442 196.99 320.442 204.617C320.442 210.483 317.665 215.651 310.055 223.947C304.267 230.257 280.978 257.471 276.368 263.311L271.86 269.023L221.145 294.45L170.429 319.878L144.515 308.932C130.262 302.912 117.676 297.987 116.547 297.986C112.523 297.982 110.407 303.348 113.44 305.862C115.081 307.221 169.183 330 170.773 330C171.391 330 195.427 318.264 224.185 303.92L276.472 277.839L290.193 261.701C297.74 252.824 308.533 240.361 314.178 234.004C319.823 227.646 325.681 219.97 327.196 216.943C333.939 203.467 328.133 188.363 313.931 182.433C310.233 180.889 304.591 180.02 301.911 180.583ZM275.306 193.683C277.202 194.645 278.894 195.889 279.067 196.448C279.241 197.006 271.663 206.461 262.228 217.458C252.793 228.456 244.096 238.7 242.901 240.223C241.053 242.579 239.762 243.082 234.25 243.596L227.772 244.201L226.02 240.531L224.268 236.862L234.004 225.651C252.604 204.236 261.591 194.425 263.714 193.216C266.772 191.477 271.321 191.66 275.306 193.683ZM1.55724 280.804C-0.609433 283.195 -0.534305 284.544 1.90282 286.978C3.82808 288.901 5.24148 288.979 38.015 288.979H72.1238L81.5377 292.981C91.8943 297.384 94.1491 297.751 96.4921 295.412C100.21 291.697 97.7362 289.344 83.9027 283.442L73.5241 279.013L38.3696 278.994C5.57004 278.975 3.10386 279.097 1.55724 280.804Z" fill="black"/>
</svg>
