<svg width="336" height="464" viewBox="0 0 336 464" fill="none" xmlns="http://www.w3.org/2000/svg">
<path fill-rule="evenodd" clip-rule="evenodd" d="M162.455 2.455C160.02 4.889 160 5.064 160 24C160 42.936 160.02 43.111 162.455 45.545C164.002 47.093 166.052 48 168 48C169.948 48 171.998 47.093 173.545 45.545C175.98 43.111 176 42.936 176 24C176 5.064 175.98 4.889 173.545 2.455C171.998 0.907 169.948 0 168 0C166.052 0 164.002 0.907 162.455 2.455ZM60.923 44.923C55.726 50.12 56.504 51.817 70.636 66.099C84.527 80.137 87.732 82.222 91.863 79.904C93.286 79.105 95.105 77.286 95.904 75.863C98.222 71.732 96.137 68.527 82.099 54.636C67.817 40.504 66.12 39.726 60.923 44.923ZM266.301 42.645C265.642 42.913 259.454 49.167 252.551 56.543C238.383 71.681 237.5 73.719 243.077 78.411C244.769 79.835 246.591 81 247.126 81C249.726 81 254.444 77.181 264.641 66.82C279.405 51.819 280.234 50.08 275.077 44.923C272.366 42.212 269.315 41.42 266.301 42.645ZM125 96.413C102.465 105.444 83.46 113.636 82.155 114.882L79.811 117.12L80.292 152.81C80.67 180.849 81.119 189.963 82.387 195.324C92.301 237.259 118.196 268.194 157.127 284.613C161.544 286.476 166.186 288 167.442 288C170.381 288 182.387 283.043 191.987 277.867C202.666 272.108 211.208 265.493 221.085 255.332C234.909 241.11 243.239 227.416 249.565 208.513C254.984 192.317 255.987 182.854 255.994 147.861C255.999 120.126 255.834 117.027 254.25 115.164C252.308 112.881 170.84 79.94 167.512 80.092C166.405 80.143 147.275 87.487 125 96.413ZM204.579 111.227L240.189 125.455L239.756 155.977C239.343 185.113 239.203 186.954 236.667 196.5C228.101 228.747 203.665 256.928 173.781 269.027L168.061 271.343L160.862 268.444C152.112 264.922 138.686 256.185 130.286 248.547C116.619 236.12 104.454 215.653 99.338 196.477C96.795 186.944 96.657 185.143 96.244 155.977L95.811 125.454L131.156 111.276C150.595 103.479 167.055 97.076 167.734 97.049C168.413 97.022 184.993 103.402 204.579 111.227ZM18.455 146.455C16.907 148.002 16 150.052 16 152C16 153.948 16.907 155.998 18.455 157.545C20.889 159.98 21.064 160 40 160C58.936 160 59.111 159.98 61.545 157.545C63.093 155.998 64 153.948 64 152C64 150.052 63.093 148.002 61.545 146.455C59.111 144.02 58.936 144 40 144C21.064 144 20.889 144.02 18.455 146.455ZM196.5 145.148C195.4 145.746 184.958 155.721 173.296 167.314L152.091 188.391L146.263 182.832C143.057 179.774 139.403 176.945 138.143 176.546C134.836 175.496 130.364 177.708 128.964 181.086C127.128 185.519 128.932 188.584 139.441 198.89C153.026 212.212 150.006 213.389 180.656 182.825C194.542 168.978 206.429 156.378 207.073 154.825C208.58 151.186 206.882 146.723 203.385 145.13C200.346 143.745 199.075 143.748 196.5 145.148ZM274.455 146.455C272.907 148.002 272 150.052 272 152C272 153.948 272.907 155.998 274.455 157.545C276.889 159.98 277.064 160 296 160C314.936 160 315.111 159.98 317.545 157.545C319.093 155.998 320 153.948 320 152C320 150.052 319.093 148.002 317.545 146.455C315.111 144.02 314.936 144 296 144C277.064 144 276.889 144.02 274.455 146.455ZM2.586 194.323L0 196.909V216C0 234.936 0.0200019 235.111 2.455 237.545C4.002 239.093 6.052 240 8 240C9.948 240 11.998 239.093 13.545 237.545C15.891 235.2 16 234.532 16 222.545C16 211.828 16.228 210 17.565 210C20.289 210 29.462 220.143 30.784 224.616C31.631 227.482 32 238.715 32 261.589V294.446L75.25 337.793C99.038 361.633 119.734 381.792 121.241 382.591C126.493 385.372 132 381.785 132 375.582C132 373.053 128.949 369.534 111.605 352.054C100.388 340.749 90.915 330.51 90.554 329.3C89.785 326.726 92.175 321.531 94.545 320.621C95.435 320.28 97.57 320 99.29 320C102.045 320 105.671 323.237 129.815 347.25C144.885 362.238 157.841 375.948 158.607 377.718C159.706 380.257 160 388.013 160 414.468V448H120H80V434.75L79.999 421.5L48 373.5L16.001 325.5L16 309.205C16 293.237 15.951 292.86 13.545 290.455C11.998 288.907 9.948 288 8 288C6.052 288 4.002 288.907 2.455 290.455C0.0230019 292.887 0 293.082 0 311.705L0.000999451 330.5L32 378.5L63.999 426.5L64 437.25V448H58.455C51.782 448 48 450.894 48 456C48 457.948 48.907 459.998 50.455 461.545L52.909 464H168H283.091L285.545 461.545C288.793 458.298 288.793 453.702 285.545 450.455C283.53 448.439 282.1 448 277.545 448H272V437.25L272.001 426.5L304 378.5L335.999 330.5L336 263.705V196.909L333.414 194.323C331.055 191.964 330.309 191.785 324.893 192.276C313.106 193.345 303.067 198.891 296.003 208.238C288.742 217.845 288.604 218.686 288.222 255.573L287.88 288.646L273.663 302.837L259.447 317.028L255.765 312.623C250.845 306.737 244.999 303.994 237.434 304.022C227.112 304.06 225.147 305.516 195.265 335.27L167.984 362.435L140.742 335.273C110.885 305.503 108.938 304.06 98.566 304.022C91.218 303.995 85.304 306.658 80.657 312.088C78.815 314.24 76.895 316 76.391 316C75.886 316 69.313 309.813 61.783 302.25L48.093 288.5L47.764 255.5C47.396 218.692 47.257 217.843 39.997 208.238C32.933 198.891 22.894 193.345 11.107 192.276C5.691 191.785 4.945 191.964 2.586 194.323ZM320 267.75L319.999 325.5L288 373.5L256.001 421.5L256 434.75V448H216H176V414.468C176 388.013 176.294 380.257 177.393 377.718C178.159 375.948 191.115 362.238 206.185 347.25C231.252 322.319 233.873 320 236.977 320C241.64 320 245 323.296 245 327.87C245 331.115 243.381 333.017 224.333 352.143C206.045 370.507 203.667 373.265 203.667 376.106C203.667 378.36 204.477 380.014 206.389 381.658C212.134 386.6 210.825 387.65 259.238 339.238L304 294.475V261.604C304 238.718 304.369 227.482 305.216 224.616C306.538 220.143 315.711 210 318.435 210C319.837 210 320 216.014 320 267.75ZM2.455 258.455C-2.506 263.415 1.009 272 8 272C12.111 272 16 268.111 16 264C16 259.889 12.111 256 8 256C6.052 256 4.002 256.907 2.455 258.455Z" fill="black"/>
</svg>
